<mxfile host="65bd71144e" modified="2021-02-05T15:51:17.332Z" agent="5.0 (Windows NT 10.0; Win64; x64) AppleWebKit/537.36 (KHTML, like Gecko) Code/1.52.1 Chrome/83.0.4103.122 Electron/9.3.5 Safari/537.36" etag="SrT8VIL3VKYZp1iKv81b" version="13.10.0" type="embed">
    <diagram id="SBUNh7i0EU1lZeqMuXgP" name="Page-1">
        <mxGraphModel dx="1143" dy="790" grid="1" gridSize="10" guides="1" tooltips="1" connect="1" arrows="1" fold="1" page="1" pageScale="1" pageWidth="1169" pageHeight="827" background="#F1FAEE" math="0" shadow="0">
            <root>
                <mxCell id="0"/>
                <mxCell id="1" parent="0"/>
                <mxCell id="2" value="" style="rounded=1;whiteSpace=wrap;html=1;sketch=0;strokeColor=#457B9D;fillColor=#A8DADC;fontColor=#1D3557;dashed=1;strokeWidth=3;" parent="1" vertex="1">
                    <mxGeometry x="550" y="320" width="550" height="310" as="geometry"/>
                </mxCell>
                <mxCell id="4" value="Client" style="outlineConnect=0;fontColor=#232F3E;gradientColor=none;strokeColor=#232F3E;fillColor=#ffffff;dashed=0;verticalLabelPosition=bottom;verticalAlign=top;align=center;html=1;fontSize=12;fontStyle=0;aspect=fixed;shape=mxgraph.aws4.resourceIcon;resIcon=mxgraph.aws4.client;rounded=0;sketch=0;" parent="1" vertex="1">
                    <mxGeometry x="80" y="340" width="40" height="40" as="geometry"/>
                </mxCell>
                <mxCell id="5" value="Client" style="outlineConnect=0;fontColor=#232F3E;gradientColor=none;strokeColor=#232F3E;fillColor=#ffffff;dashed=0;verticalLabelPosition=bottom;verticalAlign=top;align=center;html=1;fontSize=12;fontStyle=0;aspect=fixed;shape=mxgraph.aws4.resourceIcon;resIcon=mxgraph.aws4.client;rounded=0;sketch=0;" parent="1" vertex="1">
                    <mxGeometry x="80" y="414" width="40" height="40" as="geometry"/>
                </mxCell>
                <mxCell id="6" value="Client" style="outlineConnect=0;fontColor=#232F3E;gradientColor=none;strokeColor=#232F3E;fillColor=#ffffff;dashed=0;verticalLabelPosition=bottom;verticalAlign=top;align=center;html=1;fontSize=12;fontStyle=0;aspect=fixed;shape=mxgraph.aws4.resourceIcon;resIcon=mxgraph.aws4.client;rounded=0;sketch=0;" parent="1" vertex="1">
                    <mxGeometry x="80" y="500" width="40" height="40" as="geometry"/>
                </mxCell>
                <mxCell id="7" value="" style="endArrow=classic;html=1;strokeColor=#457B9D;fillColor=#A8DADC;fontColor=#1D3557;strokeWidth=2;" parent="1" edge="1">
                    <mxGeometry width="50" height="50" relative="1" as="geometry">
                        <mxPoint x="140" y="360" as="sourcePoint"/>
                        <mxPoint x="440" y="360" as="targetPoint"/>
                        <Array as="points">
                            <mxPoint x="260" y="360"/>
                        </Array>
                    </mxGeometry>
                </mxCell>
                <mxCell id="15" value="&amp;nbsp;操作命令" style="edgeLabel;html=1;align=center;verticalAlign=middle;resizable=0;points=[];fontColor=#1D3557;labelBackgroundColor=#FFFFFF;fontSize=18;" parent="7" vertex="1" connectable="0">
                    <mxGeometry x="-0.1267" y="-3" relative="1" as="geometry">
                        <mxPoint as="offset"/>
                    </mxGeometry>
                </mxCell>
                <mxCell id="8" value="" style="endArrow=classic;html=1;strokeColor=#457B9D;fillColor=#A8DADC;fontColor=#1D3557;strokeWidth=2;" parent="1" edge="1">
                    <mxGeometry width="50" height="50" relative="1" as="geometry">
                        <mxPoint x="140" y="439.5" as="sourcePoint"/>
                        <mxPoint x="440" y="439.5" as="targetPoint"/>
                        <Array as="points">
                            <mxPoint x="260" y="439.5"/>
                        </Array>
                    </mxGeometry>
                </mxCell>
                <mxCell id="16" value="&lt;span style=&quot;background-color: rgb(255 , 255 , 255)&quot;&gt;&amp;nbsp;操作命令&lt;/span&gt;" style="edgeLabel;html=1;align=center;verticalAlign=middle;resizable=0;points=[];fontSize=18;fontColor=#1D3557;" parent="8" vertex="1" connectable="0">
                    <mxGeometry x="-0.0067" y="5" relative="1" as="geometry">
                        <mxPoint x="-19" y="-0.5" as="offset"/>
                    </mxGeometry>
                </mxCell>
                <mxCell id="9" value="" style="endArrow=classic;html=1;strokeColor=#457B9D;fillColor=#A8DADC;fontColor=#1D3557;strokeWidth=2;" parent="1" edge="1">
                    <mxGeometry width="50" height="50" relative="1" as="geometry">
                        <mxPoint x="140" y="520" as="sourcePoint"/>
                        <mxPoint x="440" y="520" as="targetPoint"/>
                        <Array as="points">
                            <mxPoint x="260" y="520"/>
                        </Array>
                    </mxGeometry>
                </mxCell>
                <mxCell id="17" value="&lt;span style=&quot;background-color: rgb(255 , 255 , 255)&quot;&gt;&amp;nbsp;操作命令&lt;/span&gt;" style="edgeLabel;html=1;align=center;verticalAlign=middle;resizable=0;points=[];fontSize=18;fontColor=#1D3557;" parent="9" vertex="1" connectable="0">
                    <mxGeometry x="-0.04" y="-2" relative="1" as="geometry">
                        <mxPoint x="-14" as="offset"/>
                    </mxGeometry>
                </mxCell>
                <mxCell id="13" value="" style="aspect=fixed;html=1;points=[];align=center;image;fontSize=12;image=img/lib/mscae/Cache_including_Redis.svg;rounded=0;dashed=1;sketch=0;strokeColor=#457B9D;strokeWidth=3;fillColor=#A8DADC;" parent="1" vertex="1">
                    <mxGeometry x="570" y="435" width="50" height="50" as="geometry"/>
                </mxCell>
                <mxCell id="14" value="&lt;b&gt;Redis Server&lt;/b&gt;" style="text;html=1;strokeColor=none;fillColor=none;align=center;verticalAlign=middle;whiteSpace=wrap;rounded=0;dashed=1;sketch=0;fontColor=#1D3557;" parent="1" vertex="1">
                    <mxGeometry x="550" y="490" width="125" height="20" as="geometry"/>
                </mxCell>
                <mxCell id="18" value="&lt;div&gt;&lt;span style=&quot;font-size: 10px ; color: rgb(0 , 0 , 0) ; line-height: 0% ; background-color: rgb(255 , 255 , 255)&quot;&gt;不阻塞，接受命令&lt;/span&gt;&lt;/div&gt;" style="triangle;whiteSpace=wrap;html=1;rounded=1;dashed=1;labelBackgroundColor=#FFFFFF;sketch=0;strokeColor=#457B9D;strokeWidth=3;fillColor=#A8DADC;fontSize=18;fontColor=#1D3557;align=left;shadow=0;" parent="1" vertex="1">
                    <mxGeometry x="440" y="340" width="110" height="240" as="geometry"/>
                </mxCell>
                <mxCell id="23" value="bgsave" style="ellipse;whiteSpace=wrap;html=1;rounded=1;shadow=0;dashed=1;labelBackgroundColor=#FFFFFF;sketch=0;strokeColor=#457B9D;strokeWidth=3;fillColor=#A8DADC;fontSize=18;fontColor=#1D3557;" parent="1" vertex="1">
                    <mxGeometry x="617.5" y="350" width="82.5" height="50" as="geometry"/>
                </mxCell>
                <mxCell id="25" value="" style="aspect=fixed;html=1;points=[];align=center;image;fontSize=12;image=img/lib/mscae/Cache_including_Redis.svg;rounded=0;dashed=1;sketch=0;strokeColor=#457B9D;strokeWidth=3;fillColor=#A8DADC;" parent="1" vertex="1">
                    <mxGeometry x="840" y="470" width="50" height="50" as="geometry"/>
                </mxCell>
                <mxCell id="26" value="&lt;b&gt;Redis Server&lt;/b&gt;" style="text;html=1;strokeColor=none;fillColor=none;align=center;verticalAlign=middle;whiteSpace=wrap;rounded=0;dashed=1;sketch=0;fontColor=#1D3557;" parent="1" vertex="1">
                    <mxGeometry x="810" y="520" width="125" height="20" as="geometry"/>
                </mxCell>
                <mxCell id="30" value="fork()" style="text;html=1;strokeColor=none;fillColor=none;align=center;verticalAlign=middle;whiteSpace=wrap;rounded=0;shadow=0;dashed=1;labelBackgroundColor=#FFFFFF;sketch=0;fontSize=18;fontColor=#1D3557;" parent="1" vertex="1">
                    <mxGeometry x="740" y="480" width="40" height="20" as="geometry"/>
                </mxCell>
                <mxCell id="35" value="rdb文件" style="shape=parallelogram;perimeter=parallelogramPerimeter;whiteSpace=wrap;html=1;fixedSize=1;rounded=1;shadow=0;dashed=1;labelBackgroundColor=#FFFFFF;sketch=0;strokeColor=#457B9D;strokeWidth=3;fillColor=#A8DADC;fontSize=18;fontColor=#1D3557;" parent="1" vertex="1">
                    <mxGeometry x="1000" y="480" width="85" height="40" as="geometry"/>
                </mxCell>
                <mxCell id="36" value="" style="shape=flexArrow;endArrow=classic;html=1;strokeColor=#457B9D;strokeWidth=2;fillColor=#A8DADC;fontSize=18;fontColor=#1D3557;" parent="1" edge="1">
                    <mxGeometry width="50" height="50" relative="1" as="geometry">
                        <mxPoint x="930" y="500" as="sourcePoint"/>
                        <mxPoint x="1000" y="500" as="targetPoint"/>
                    </mxGeometry>
                </mxCell>
                <mxCell id="37" value="createRDB" style="text;html=1;strokeColor=none;fillColor=none;align=center;verticalAlign=middle;whiteSpace=wrap;rounded=0;shadow=0;dashed=1;labelBackgroundColor=#FFFFFF;sketch=0;fontSize=18;fontColor=#1D3557;" parent="1" vertex="1">
                    <mxGeometry x="935" y="454" width="40" height="20" as="geometry"/>
                </mxCell>
                <mxCell id="38" value="" style="shape=flexArrow;endArrow=classic;startArrow=classic;html=1;strokeColor=#457B9D;strokeWidth=2;fillColor=#A8DADC;fontSize=18;fontColor=#1D3557;width=8;endSize=3.33;exitX=0.236;exitY=0.613;exitDx=0;exitDy=0;exitPerimeter=0;" parent="1" source="2" edge="1">
                    <mxGeometry width="50" height="50" relative="1" as="geometry">
                        <mxPoint x="740" y="510" as="sourcePoint"/>
                        <mxPoint x="810" y="510" as="targetPoint"/>
                        <Array as="points">
                            <mxPoint x="810" y="510"/>
                        </Array>
                    </mxGeometry>
                </mxCell>
                <mxCell id="39" value="BGSAVE" style="text;html=1;strokeColor=none;fillColor=none;align=center;verticalAlign=middle;whiteSpace=wrap;rounded=0;shadow=0;dashed=1;labelBackgroundColor=#FFFFFF;sketch=0;fontSize=18;fontColor=#1D3557;" parent="1" vertex="1">
                    <mxGeometry x="100" y="240" width="40" height="20" as="geometry"/>
                </mxCell>
                <mxCell id="40" value="SAVE" style="text;html=1;strokeColor=none;fillColor=none;align=center;verticalAlign=middle;whiteSpace=wrap;rounded=0;shadow=0;dashed=1;labelBackgroundColor=#FFFFFF;sketch=0;fontSize=18;fontColor=#1D3557;" parent="1" vertex="1">
                    <mxGeometry x="90" y="740" width="40" height="20" as="geometry"/>
                </mxCell>
                <mxCell id="56" value="&lt;b&gt;Redis Server&lt;/b&gt;" style="text;html=1;strokeColor=none;fillColor=none;align=center;verticalAlign=middle;whiteSpace=wrap;rounded=0;dashed=1;sketch=0;fontColor=#1D3557;" parent="1" vertex="1">
                    <mxGeometry x="560" y="500" width="125" height="20" as="geometry"/>
                </mxCell>
                <mxCell id="58" style="edgeStyle=orthogonalEdgeStyle;curved=0;rounded=1;sketch=0;orthogonalLoop=1;jettySize=auto;html=1;strokeColor=#457B9D;strokeWidth=2;fillColor=#A8DADC;fontSize=18;fontColor=#1D3557;" parent="1" edge="1">
                    <mxGeometry relative="1" as="geometry">
                        <mxPoint x="627.5" y="385" as="sourcePoint"/>
                        <mxPoint x="605" y="445" as="targetPoint"/>
                    </mxGeometry>
                </mxCell>
                <mxCell id="61" value="&lt;b&gt;Redis Server&lt;/b&gt;" style="text;html=1;strokeColor=none;fillColor=none;align=center;verticalAlign=middle;whiteSpace=wrap;rounded=0;dashed=1;sketch=0;fontColor=#1D3557;" parent="1" vertex="1">
                    <mxGeometry x="820" y="530" width="125" height="20" as="geometry"/>
                </mxCell>
                <mxCell id="67" value="" style="rounded=1;whiteSpace=wrap;html=1;sketch=0;strokeColor=#457B9D;fillColor=#A8DADC;fontColor=#1D3557;dashed=1;strokeWidth=3;" parent="1" vertex="1">
                    <mxGeometry x="560" y="780" width="550" height="310" as="geometry"/>
                </mxCell>
                <mxCell id="68" value="Client" style="outlineConnect=0;fontColor=#232F3E;gradientColor=none;strokeColor=#232F3E;fillColor=#ffffff;dashed=0;verticalLabelPosition=bottom;verticalAlign=top;align=center;html=1;fontSize=12;fontStyle=0;aspect=fixed;shape=mxgraph.aws4.resourceIcon;resIcon=mxgraph.aws4.client;rounded=0;sketch=0;" parent="1" vertex="1">
                    <mxGeometry x="80" y="800" width="40" height="40" as="geometry"/>
                </mxCell>
                <mxCell id="69" value="Client" style="outlineConnect=0;fontColor=#232F3E;gradientColor=none;strokeColor=#232F3E;fillColor=#ffffff;dashed=0;verticalLabelPosition=bottom;verticalAlign=top;align=center;html=1;fontSize=12;fontStyle=0;aspect=fixed;shape=mxgraph.aws4.resourceIcon;resIcon=mxgraph.aws4.client;rounded=0;sketch=0;" parent="1" vertex="1">
                    <mxGeometry x="80" y="874" width="40" height="40" as="geometry"/>
                </mxCell>
                <mxCell id="70" value="Client" style="outlineConnect=0;fontColor=#232F3E;gradientColor=none;strokeColor=#232F3E;fillColor=#ffffff;dashed=0;verticalLabelPosition=bottom;verticalAlign=top;align=center;html=1;fontSize=12;fontStyle=0;aspect=fixed;shape=mxgraph.aws4.resourceIcon;resIcon=mxgraph.aws4.client;rounded=0;sketch=0;" parent="1" vertex="1">
                    <mxGeometry x="80" y="960" width="40" height="40" as="geometry"/>
                </mxCell>
                <mxCell id="71" value="" style="endArrow=classic;html=1;strokeColor=#457B9D;fillColor=#A8DADC;fontColor=#1D3557;strokeWidth=2;" parent="1" edge="1">
                    <mxGeometry width="50" height="50" relative="1" as="geometry">
                        <mxPoint x="140" y="820" as="sourcePoint"/>
                        <mxPoint x="440" y="820" as="targetPoint"/>
                        <Array as="points">
                            <mxPoint x="260" y="820"/>
                        </Array>
                    </mxGeometry>
                </mxCell>
                <mxCell id="72" value="&amp;nbsp;操作命令" style="edgeLabel;html=1;align=center;verticalAlign=middle;resizable=0;points=[];fontColor=#1D3557;labelBackgroundColor=#FFFFFF;fontSize=18;" parent="71" vertex="1" connectable="0">
                    <mxGeometry x="-0.1267" y="-3" relative="1" as="geometry">
                        <mxPoint as="offset"/>
                    </mxGeometry>
                </mxCell>
                <mxCell id="73" value="" style="endArrow=classic;html=1;strokeColor=#457B9D;fillColor=#A8DADC;fontColor=#1D3557;strokeWidth=2;" parent="1" edge="1">
                    <mxGeometry width="50" height="50" relative="1" as="geometry">
                        <mxPoint x="140" y="899.5" as="sourcePoint"/>
                        <mxPoint x="440" y="899.5" as="targetPoint"/>
                        <Array as="points">
                            <mxPoint x="260" y="899.5"/>
                        </Array>
                    </mxGeometry>
                </mxCell>
                <mxCell id="74" value="&lt;span style=&quot;background-color: rgb(255 , 255 , 255)&quot;&gt;&amp;nbsp;操作命令&lt;/span&gt;" style="edgeLabel;html=1;align=center;verticalAlign=middle;resizable=0;points=[];fontSize=18;fontColor=#1D3557;" parent="73" vertex="1" connectable="0">
                    <mxGeometry x="-0.0067" y="5" relative="1" as="geometry">
                        <mxPoint x="-19" y="-0.5" as="offset"/>
                    </mxGeometry>
                </mxCell>
                <mxCell id="75" value="" style="endArrow=classic;html=1;strokeColor=#457B9D;fillColor=#A8DADC;fontColor=#1D3557;strokeWidth=2;" parent="1" edge="1">
                    <mxGeometry width="50" height="50" relative="1" as="geometry">
                        <mxPoint x="140" y="980" as="sourcePoint"/>
                        <mxPoint x="440" y="980" as="targetPoint"/>
                        <Array as="points">
                            <mxPoint x="260" y="980"/>
                        </Array>
                    </mxGeometry>
                </mxCell>
                <mxCell id="76" value="&lt;span style=&quot;background-color: rgb(255 , 255 , 255)&quot;&gt;&amp;nbsp;操作命令&lt;/span&gt;" style="edgeLabel;html=1;align=center;verticalAlign=middle;resizable=0;points=[];fontSize=18;fontColor=#1D3557;" parent="75" vertex="1" connectable="0">
                    <mxGeometry x="-0.04" y="-2" relative="1" as="geometry">
                        <mxPoint x="-14" as="offset"/>
                    </mxGeometry>
                </mxCell>
                <mxCell id="77" value="" style="aspect=fixed;html=1;points=[];align=center;image;fontSize=12;image=img/lib/mscae/Cache_including_Redis.svg;rounded=0;dashed=1;sketch=0;strokeColor=#457B9D;strokeWidth=3;fillColor=#A8DADC;" parent="1" vertex="1">
                    <mxGeometry x="570" y="895" width="50" height="50" as="geometry"/>
                </mxCell>
                <mxCell id="78" value="&lt;b&gt;Redis Server&lt;/b&gt;" style="text;html=1;strokeColor=none;fillColor=none;align=center;verticalAlign=middle;whiteSpace=wrap;rounded=0;dashed=1;sketch=0;fontColor=#1D3557;" parent="1" vertex="1">
                    <mxGeometry x="550" y="950" width="125" height="20" as="geometry"/>
                </mxCell>
                <mxCell id="79" value="&lt;div&gt;&lt;span style=&quot;font-size: 10px ; color: rgb(0 , 0 , 0) ; line-height: 0% ; background-color: rgb(255 , 255 , 255)&quot;&gt;阻塞，不接受命令&lt;/span&gt;&lt;/div&gt;" style="triangle;whiteSpace=wrap;html=1;rounded=1;dashed=1;labelBackgroundColor=#FFFFFF;sketch=0;strokeColor=#457B9D;strokeWidth=3;fillColor=#A8DADC;fontSize=18;fontColor=#1D3557;align=left;shadow=0;" parent="1" vertex="1">
                    <mxGeometry x="440" y="800" width="110" height="240" as="geometry"/>
                </mxCell>
                <mxCell id="80" style="edgeStyle=orthogonalEdgeStyle;curved=0;rounded=1;sketch=0;orthogonalLoop=1;jettySize=auto;html=1;strokeColor=#457B9D;strokeWidth=2;fillColor=#A8DADC;fontSize=18;fontColor=#1D3557;" parent="1" source="81" target="77" edge="1">
                    <mxGeometry relative="1" as="geometry"/>
                </mxCell>
                <mxCell id="81" value="save" style="ellipse;whiteSpace=wrap;html=1;rounded=1;shadow=0;dashed=1;labelBackgroundColor=#FFFFFF;sketch=0;strokeColor=#457B9D;strokeWidth=3;fillColor=#A8DADC;fontSize=18;fontColor=#1D3557;" parent="1" vertex="1">
                    <mxGeometry x="617.5" y="810" width="82.5" height="50" as="geometry"/>
                </mxCell>
                <mxCell id="85" value="rdb文件" style="shape=parallelogram;perimeter=parallelogramPerimeter;whiteSpace=wrap;html=1;fixedSize=1;rounded=1;shadow=0;dashed=1;labelBackgroundColor=#FFFFFF;sketch=0;strokeColor=#457B9D;strokeWidth=3;fillColor=#A8DADC;fontSize=18;fontColor=#1D3557;" parent="1" vertex="1">
                    <mxGeometry x="1000" y="930" width="85" height="40" as="geometry"/>
                </mxCell>
                <mxCell id="86" value="" style="shape=flexArrow;endArrow=classic;html=1;strokeColor=#457B9D;strokeWidth=2;fillColor=#A8DADC;fontSize=18;fontColor=#1D3557;exitX=1;exitY=0;exitDx=0;exitDy=0;" parent="1" source="78" edge="1">
                    <mxGeometry width="50" height="50" relative="1" as="geometry">
                        <mxPoint x="930" y="960" as="sourcePoint"/>
                        <mxPoint x="990" y="950" as="targetPoint"/>
                    </mxGeometry>
                </mxCell>
                <mxCell id="87" value="createRDB" style="text;html=1;strokeColor=none;fillColor=none;align=center;verticalAlign=middle;whiteSpace=wrap;rounded=0;shadow=0;dashed=1;labelBackgroundColor=#FFFFFF;sketch=0;fontSize=18;fontColor=#1D3557;" parent="1" vertex="1">
                    <mxGeometry x="805" y="914" width="40" height="20" as="geometry"/>
                </mxCell>
            </root>
        </mxGraphModel>
    </diagram>
</mxfile>